<svg width="33" height="33" viewBox="0 0 33 33" fill="none" xmlns="http://www.w3.org/2000/svg">
<path d="M16.5 14.85C16.0624 14.85 15.6427 15.0238 15.3333 15.3333C15.0238 15.6427 14.85 16.0624 14.85 16.5V23.1C14.85 23.5376 15.0238 23.9573 15.3333 24.2667C15.6427 24.5762 16.0624 24.75 16.5 24.75C16.9376 24.75 17.3573 24.5762 17.6667 24.2667C17.9762 23.9573 18.15 23.5376 18.15 23.1V16.5C18.15 16.0624 17.9762 15.6427 17.6667 15.3333C17.3573 15.0238 16.9376 14.85 16.5 14.85ZM17.127 8.382C16.7253 8.21697 16.2747 8.21697 15.873 8.382C15.6705 8.46053 15.4854 8.57828 15.3285 8.7285C15.1828 8.88888 15.0656 9.07304 14.982 9.273C14.8896 9.46882 14.8444 9.68356 14.85 9.9C14.8488 10.1171 14.8904 10.3324 14.9725 10.5334C15.0546 10.7345 15.1756 10.9173 15.3285 11.0715C15.4889 11.2172 15.673 11.3344 15.873 11.418C16.123 11.5207 16.3943 11.5604 16.6633 11.5337C16.9322 11.5069 17.1904 11.4146 17.4153 11.2647C17.6401 11.1148 17.8247 10.9119 17.9528 10.674C18.081 10.436 18.1487 10.1702 18.15 9.9C18.1439 9.46313 17.973 9.04469 17.6715 8.7285C17.5146 8.57828 17.3295 8.46053 17.127 8.382ZM16.5 0C13.2366 0 10.0465 0.967708 7.3331 2.78075C4.61969 4.59379 2.50484 7.17074 1.25599 10.1857C0.00714919 13.2007 -0.319606 16.5183 0.31705 19.719C0.953706 22.9197 2.52518 25.8597 4.83274 28.1673C7.14031 30.4748 10.0803 32.0463 13.281 32.683C16.4817 33.3196 19.7993 32.9929 22.8143 31.744C25.8293 30.4952 28.4062 28.3803 30.2192 25.6669C32.0323 22.9535 33 19.7634 33 16.5C33 14.3332 32.5732 12.1876 31.744 10.1857C30.9148 8.18385 29.6994 6.3649 28.1673 4.83274C26.6351 3.30057 24.8162 2.08519 22.8143 1.25599C20.8124 0.426785 18.6668 0 16.5 0ZM16.5 29.7C13.8893 29.7 11.3372 28.9258 9.16648 27.4754C6.99575 26.025 5.30387 23.9634 4.3048 21.5514C3.30572 19.1394 3.04432 16.4854 3.55364 13.9248C4.06297 11.3643 5.32014 9.01224 7.1662 7.16619C9.01225 5.32014 11.3643 4.06296 13.9248 3.55363C16.4854 3.04431 19.1394 3.30571 21.5514 4.30479C23.9634 5.30387 26.025 6.99574 27.4754 9.16647C28.9258 11.3372 29.7 13.8893 29.7 16.5C29.7 20.0009 28.3093 23.3583 25.8338 25.8338C23.3583 28.3093 20.0009 29.7 16.5 29.7Z" fill="white"/>
</svg>
