<svg width="124" height="71" viewBox="0 0 124 71" fill="none" xmlns="http://www.w3.org/2000/svg">
<path fill-rule="evenodd" clip-rule="evenodd" d="M61.4913 52.1645C61.3716 52.1992 61.2967 52.2988 61.3862 52.4285C61.431 52.4934 61.4209 52.5482 61.4657 52.6131C61.4556 52.6679 61.4556 52.6679 61.3907 52.7127L61.3359 52.7026C61.1121 52.3782 60.9431 52.0639 60.6544 51.7843C60.5403 51.48 60.3411 51.3302 60.162 51.0707C60.0725 50.9409 59.9729 50.866 59.9382 50.7463C59.8487 50.6165 59.7044 50.4767 59.6148 50.347C59.5354 50.1624 59.391 50.0226 59.2467 49.8828C59.1471 49.8078 59.0576 49.6781 58.9781 49.4935C58.9334 49.4286 58.9434 49.3738 58.8886 49.3638C58.6794 49.2687 58.61 49.0293 58.4857 48.7799C58.4063 48.5953 58.282 48.3459 58.1478 48.1512C58.0235 47.9018 57.8993 47.6523 57.8299 47.4129C57.7504 47.2284 57.6709 47.0438 57.5266 46.904C57.4818 46.8391 57.3823 46.7642 57.4024 46.6545C57.1293 45.9811 56.8562 45.3077 56.5831 44.6343C56.4241 44.2652 56.3301 43.8512 56.236 43.4373C56.2013 43.3176 56.2114 43.2628 56.1767 43.1431C56.0077 42.8288 55.9035 42.4697 55.7994 42.1106C55.4816 41.3723 55.2185 40.6441 55.0203 39.8711C54.9856 39.7514 54.9509 39.6317 54.9162 39.512C54.8121 39.1529 54.6979 38.8487 54.6587 38.4448C54.6441 38.2155 54.5098 38.0209 54.4952 37.7915C54.4806 37.5622 54.5209 37.3429 54.4414 37.1583C54.2981 36.3954 54.3292 35.6078 54.2955 34.865C54.3211 34.4164 54.292 33.9577 54.3075 33.5639C54.3131 33.225 54.4383 32.8513 54.4539 32.4575C54.5142 32.1286 54.5197 31.7896 54.6449 31.4159C54.7601 31.0971 54.8652 30.833 54.9804 30.5142C54.9904 30.4593 55.0654 30.3598 55.0754 30.3049C55.1056 30.1405 55.0809 29.966 55.1011 29.8563C55.1312 29.6919 55.261 29.6023 55.2912 29.4379C55.2967 29.0989 55.4667 28.7901 55.6266 28.5361C55.8816 28.0729 56.1365 27.6097 56.3467 27.0817C56.3669 26.972 56.4418 26.8724 56.5167 26.7729C56.8265 26.3197 57.0915 25.8017 57.4013 25.3485C57.7861 24.7958 58.1607 24.2979 58.5902 23.8101C58.6651 23.7105 58.805 23.5661 58.8799 23.4665C58.985 23.2025 59.1997 22.9586 59.4592 22.7795C59.5241 22.7348 59.5991 22.6352 59.6639 22.5904C59.7288 22.5457 59.7489 22.436 59.8138 22.3913C60.0185 22.2022 60.2232 22.0131 60.373 21.8139C60.5777 21.6248 60.6828 21.3607 60.8775 21.2265C61.0072 21.1369 61.0922 20.9825 61.1671 20.883C61.3919 20.5842 61.6067 20.3403 61.9311 20.1165C62.3953 19.7483 62.8147 19.3153 63.1793 18.8722C63.2442 18.8274 63.2643 18.7178 63.3191 18.7279C63.6334 18.5589 63.8482 18.3149 64.0529 18.1258C64.1826 18.0363 64.2576 17.9367 64.3772 17.902C64.6368 17.723 64.8414 17.5339 65.0909 17.4096C65.1558 17.3649 65.2206 17.3201 65.2855 17.2754C65.4801 17.1411 65.7296 17.0168 65.9242 16.8826C66.064 16.7382 66.3135 16.614 66.4981 16.5345C66.8124 16.3655 67.1916 16.1518 67.5059 15.9828C67.8202 15.8138 68.0697 15.6896 68.384 15.5206C68.5037 15.4859 68.6335 15.3963 68.7531 15.3616C68.9925 15.2922 69.242 15.168 69.4467 14.9789C69.4567 14.9241 69.5116 14.9341 69.5664 14.9442C69.9903 14.7953 70.3147 14.5715 70.7286 14.4774C71.1973 14.3934 71.6314 14.1897 72.1102 14.0509C73.0677 13.7733 74.0152 13.5505 75.0623 13.4026C75.7056 13.2939 76.3387 13.2401 76.9518 13.2959C77.0614 13.316 77.236 13.2914 77.3557 13.2567C77.4754 13.222 77.5302 13.232 77.6398 13.2521C77.6946 13.2622 77.6946 13.2622 77.7495 13.2722C78.1085 13.1681 78.537 13.3034 78.9062 13.1445C78.9162 13.0897 78.9263 13.0348 78.8815 12.97C78.7271 12.885 78.6376 12.7552 78.4832 12.6702C78.1296 12.4354 77.4673 12.0305 77.1238 11.7409C77.0242 11.6659 76.9694 11.6559 76.8698 11.5809C76.7702 11.506 76.6606 11.4859 76.561 11.4109C76.1627 11.1112 75.8192 10.8215 75.3459 10.6214C75.0919 10.4615 74.9576 10.2668 74.7685 10.0621C74.6689 9.98721 74.6342 9.86751 74.5347 9.79258C74.246 9.51296 73.9673 9.17852 73.7983 8.86419C73.7189 8.67962 73.5846 8.48499 73.5051 8.30042C73.4604 8.23554 73.4156 8.17067 73.4257 8.11585C73.4558 7.95139 73.3764 7.76682 73.2868 7.63707C73.2421 7.57219 73.2074 7.45249 73.1178 7.32274C73.0731 7.25786 73.0932 7.14823 73.1133 7.03859C73.1334 6.92895 73.1435 6.87413 73.054 6.74438C72.9197 6.54975 72.8402 6.36518 72.716 6.11573C72.6365 5.93115 72.6018 5.81146 72.642 5.59218C72.6722 5.42772 72.6476 5.25321 72.5681 5.06864C72.5334 4.94894 72.5087 4.77443 72.474 4.65473C72.4393 4.53503 72.4046 4.41534 72.38 4.24082C72.211 3.9265 72.1863 3.75198 72.1169 3.51259C72.0822 3.3929 72.1124 3.22844 72.0229 3.09869C71.9535 2.85929 71.9288 2.68478 71.9791 2.41068C71.9892 2.35586 72.0093 2.24623 72.0193 2.19141C72.0193 2.19141 72.0842 2.14664 72.139 2.1567C72.1938 2.16676 72.1938 2.16676 72.2487 2.17682C72.2934 2.24169 72.3482 2.25175 72.4478 2.32668C73.0207 2.60177 73.4436 3.07602 73.8867 3.44063C74.1407 3.60055 74.3298 3.80524 74.5089 4.06475C74.7327 4.38913 75.0314 4.61393 75.3201 4.89355C75.3548 5.01324 75.4644 5.03336 75.5092 5.09823C75.8326 5.49755 76.1761 5.78723 76.5543 6.1966C76.8878 6.5411 77.2212 6.88559 77.6195 7.18533C77.7639 7.32514 77.9631 7.47501 78.1622 7.62487C78.5158 7.85973 78.8593 8.14941 79.158 8.37421C79.8652 8.84392 80.5522 9.42328 81.2694 9.83818C81.4786 9.93322 81.6677 10.1379 81.9418 10.1882C81.9966 10.1983 81.9865 10.2531 82.0414 10.2631C82.4844 10.6277 82.9476 10.8827 83.4008 11.1925C83.5004 11.2674 83.5552 11.2775 83.6548 11.3524C83.9535 11.5772 84.2623 11.7472 84.5711 11.9172C84.7255 12.0022 84.8799 12.0872 85.0891 12.1822C85.1887 12.2572 85.2984 12.2773 85.3979 12.3522C85.5523 12.4372 85.7616 12.5322 85.916 12.6172C86.0155 12.6922 86.1252 12.7123 86.2248 12.7872C86.5884 12.9673 87.0068 13.1573 87.3704 13.3374C87.7341 13.5174 88.1525 13.7075 88.5161 13.8876C88.7701 14.0475 88.9894 14.0877 89.2434 14.2476C89.3429 14.3226 89.4626 14.2879 89.5723 14.308C90.1506 14.2441 90.7939 14.1354 91.417 14.1364C91.4718 14.1465 91.5915 14.1118 91.6463 14.1218C91.756 14.142 91.8656 14.1621 91.9003 14.2818C91.9451 14.3466 91.9899 14.4115 91.9798 14.4663C92.0246 14.5312 92.0145 14.586 92.0044 14.6409C91.8792 15.0145 91.8636 15.4083 91.6937 15.7171C91.5337 15.9711 91.3738 16.2251 91.1143 16.4041C90.9297 16.4836 90.7899 16.628 90.6501 16.7723C90.4253 17.071 90.111 17.24 89.7967 17.409C89.7318 17.4538 89.6121 17.4885 89.5472 17.5333C89.4823 17.578 89.4175 17.6228 89.3626 17.6127C89.0136 17.662 88.6993 17.831 88.395 17.9452C88.1008 18.0045 87.8514 18.1288 87.5919 18.3078C87.4722 18.3425 87.3972 18.4421 87.3324 18.4869C87.1925 18.6312 87.018 18.6558 86.8435 18.6805C86.7339 18.6604 86.669 18.7051 86.5493 18.7398C86.235 18.9088 85.8759 19.013 85.5616 19.1819C85.1924 19.3409 84.8882 19.4551 84.5291 19.5592C83.4518 19.8715 82.3992 20.3584 81.3566 20.7904C80.8029 21.0288 80.2492 21.2672 79.7055 21.4508C79.4561 21.575 79.1619 21.6344 78.9572 21.8235C78.5981 21.9276 78.3185 22.2163 78.0142 22.3305C77.5153 22.5789 77.0612 22.8923 76.5623 23.1407C76.3128 23.2649 76.173 23.4093 75.9236 23.5335C75.739 23.613 75.5992 23.7573 75.4247 23.782C75.1853 23.8514 74.9907 23.9857 74.796 24.12C74.5365 24.299 74.2323 24.4132 73.8485 24.3428C73.7389 24.3227 73.674 24.3674 73.5543 24.4021C73.4246 24.4917 73.2848 24.636 73.155 24.7255C73.0901 24.7703 73.0252 24.815 72.9056 24.8497C72.8507 24.8397 72.7959 24.8296 72.806 24.7748C72.9513 24.2915 73.1414 23.8731 73.3863 23.4647C73.5462 23.2107 73.7062 22.9567 73.9209 22.7128C74.0708 22.5136 74.2106 22.3693 74.3605 22.1701C74.8 21.6274 75.3492 21.1049 75.8883 20.6372C75.9632 20.5376 76.0829 20.5029 76.1478 20.4581C76.4621 20.2891 76.6668 20.1 76.9263 19.921C77.5203 19.4633 78.169 19.0157 78.8077 18.6229C79.0572 18.4986 79.3066 18.3744 79.5013 18.2401C79.7507 18.1159 79.9554 17.9268 80.2597 17.8126C80.4991 17.7432 80.7038 17.5541 80.998 17.4947C81.1177 17.46 81.2474 17.3705 81.3772 17.281C81.3772 17.281 81.442 17.2362 81.3973 17.1713C81.4073 17.1165 81.3525 17.1065 81.3525 17.1065C81.2977 17.0964 81.2429 17.0864 81.1881 17.0763C81.0135 17.1009 80.8491 17.0708 80.6746 17.0954C80.5001 17.1201 80.2707 17.1347 80.1063 17.1045C79.9418 17.0743 79.7225 17.0341 79.538 17.1136C79.209 17.0532 78.9048 17.1674 78.5658 17.1619C78.2816 17.1664 78.0523 17.181 77.7682 17.1855C77.135 17.2394 76.5119 17.2384 75.9335 17.3022C75.8787 17.2922 75.769 17.2721 75.7041 17.3168C75.5945 17.2967 75.5296 17.3415 75.42 17.3214C75.1907 17.336 74.9513 17.4054 74.6571 17.4647C74.4825 17.4894 74.3628 17.5241 74.1883 17.5487C74.0686 17.5834 73.9489 17.6181 73.8393 17.598C73.5003 17.5925 73.2509 17.7167 72.9119 17.7112C72.7475 17.681 72.6177 17.7706 72.498 17.8053C72.074 17.9541 71.5953 18.093 71.1713 18.2418C70.7473 18.3907 70.3234 18.5396 69.8994 18.6885C69.8345 18.7332 69.7148 18.7679 69.65 18.8127C69.4654 18.8922 69.2708 19.0264 69.0862 19.1059C68.9016 19.1854 68.707 19.3197 68.5672 19.464C68.3625 19.6531 68.1679 19.7874 67.9184 19.9116C67.594 20.1354 67.2148 20.3492 66.9453 20.5831C66.6757 20.8169 66.3513 21.0407 66.0918 21.2198C65.6925 21.5432 65.2932 21.8666 64.839 22.1799C64.7742 22.2247 64.7641 22.2795 64.7093 22.2694C64.4598 22.3937 64.2552 22.5828 64.0505 22.7719C63.8458 22.961 63.6411 23.1501 63.3916 23.2743C63.3268 23.3191 63.2518 23.4187 63.187 23.4634C63.1221 23.5082 63.102 23.6178 63.0471 23.6078C62.8525 23.7421 62.6926 23.996 62.5327 24.25C62.2978 24.6036 62.073 24.9023 61.7934 25.191C61.7185 25.2906 61.6536 25.3354 61.5238 25.4249C61.3292 25.5592 61.2442 25.7136 61.1492 25.9228C61.129 26.0324 61.0642 26.0772 60.9892 26.1768C60.7745 26.4207 60.6045 26.7295 60.3349 26.9634C60.3349 26.9634 60.2701 27.0081 60.26 27.0629C60.08 27.4266 59.7455 27.7052 59.5655 28.0688C59.4805 28.2232 59.4056 28.3228 59.3206 28.4772C59.1204 28.9505 58.8207 29.3488 58.5657 29.812C58.4259 29.9563 58.3957 30.1208 58.3007 30.33C58.2303 30.7137 58.0503 31.0774 57.8803 31.3862C57.7002 31.7498 57.5851 32.0686 57.4599 32.4423C57.3648 32.6515 57.3895 32.8261 57.3492 33.0453C57.2642 33.1997 57.2341 33.3642 57.1491 33.5186C57.0239 33.8923 56.9635 34.2212 56.9032 34.5501C56.8976 34.8891 56.7825 35.2079 56.7669 35.6017C56.7066 35.9306 56.701 36.2696 56.6955 36.6086C56.7101 36.8379 56.6598 37.112 56.7292 37.3514C56.7192 37.4062 56.774 37.4163 56.7639 37.4711C56.7383 37.9197 56.8324 38.3336 56.9264 38.7475C56.9757 39.0966 56.9601 39.4904 57.0542 39.9043C57.0989 39.9691 57.0788 40.0788 57.0688 40.1336C57.0587 40.1884 57.0487 40.2432 57.0934 40.3081C57.2076 40.6124 57.2669 40.9066 57.3162 41.2556C57.3655 41.6046 57.4797 41.9089 57.5391 42.2031C57.5738 42.3228 57.6085 42.4425 57.698 42.5723C57.7921 42.9862 58.0058 43.3654 58.045 43.7692C58.035 43.824 58.0697 43.9437 58.1145 44.0086C58.2633 44.4326 58.3674 44.7917 58.5163 45.2156C58.5611 45.2805 58.551 45.3353 58.5857 45.455C58.8442 45.8991 58.973 46.4327 59.1767 46.8667C59.3703 47.3556 59.574 47.7896 59.8225 48.2885C59.8673 48.3534 59.912 48.4182 59.902 48.4731C60.0609 48.8422 60.2098 49.2662 60.4336 49.5905C60.7022 49.9798 60.841 50.4586 61.0447 50.8926C61.0894 50.9575 61.0794 51.0123 61.179 51.0872C61.5024 51.4866 61.6512 51.9105 61.9198 52.2998C61.9646 52.3646 62.0093 52.4295 61.9993 52.4843L61.9892 52.5392L61.9344 52.5291C61.8248 52.509 61.78 52.4441 61.6704 52.424C61.5954 52.5236 61.6402 52.5885 61.6301 52.6433C61.5205 52.6232 61.4757 52.5583 61.441 52.4386C61.5607 52.4039 61.526 52.2842 61.4913 52.1645C61.4913 52.1645 61.5461 52.1746 61.6009 52.1846C61.6558 52.1947 61.7206 52.1499 61.6759 52.085C61.6412 51.9653 61.5964 51.9005 61.442 51.8155C61.4767 51.9352 61.4566 52.0448 61.4913 52.1645Z" fill="white"/>
<path fill-rule="evenodd" clip-rule="evenodd" d="M61.5049 53.017C61.5597 53.027 61.6146 53.0371 61.6045 53.0919L61.5497 53.0818C61.5497 53.0818 61.5597 53.027 61.5049 53.017Z" fill="white"/>
<path fill-rule="evenodd" clip-rule="evenodd" d="M62.2824 53.1029C62.2925 53.0481 62.2925 53.0481 62.2824 53.1029C62.2477 52.9832 62.2477 52.9832 62.2925 53.0481C62.2925 53.0481 62.2925 53.0481 62.2824 53.1029Z" fill="white"/>
<path fill-rule="evenodd" clip-rule="evenodd" d="M62.2824 53.1029L62.3473 53.0582L62.2824 53.1029Z" fill="white"/>
<path d="M5.78906 63.4658H3.97754V62.3232H5.78906C6.06901 62.3232 6.29688 62.2777 6.47266 62.1865C6.64844 62.0921 6.77702 61.9619 6.8584 61.7959C6.93978 61.6299 6.98047 61.4427 6.98047 61.2344C6.98047 61.0228 6.93978 60.8258 6.8584 60.6436C6.77702 60.4613 6.64844 60.3148 6.47266 60.2041C6.29688 60.0934 6.06901 60.0381 5.78906 60.0381H4.48535V66H3.02051V58.8906H5.78906C6.3457 58.8906 6.82259 58.9915 7.21973 59.1934C7.62012 59.3919 7.92611 59.667 8.1377 60.0186C8.34928 60.3701 8.45508 60.7721 8.45508 61.2246C8.45508 61.6836 8.34928 62.0807 8.1377 62.416C7.92611 62.7513 7.62012 63.0101 7.21973 63.1924C6.82259 63.3747 6.3457 63.4658 5.78906 63.4658ZM12.1709 64.8086V62.4551C12.1709 62.2858 12.1432 62.141 12.0879 62.0205C12.0326 61.8968 11.9463 61.8008 11.8291 61.7324C11.7152 61.6641 11.5671 61.6299 11.3848 61.6299C11.2285 61.6299 11.0934 61.6576 10.9795 61.7129C10.8656 61.765 10.7777 61.8415 10.7158 61.9424C10.654 62.04 10.623 62.1556 10.623 62.2891H9.2168C9.2168 62.0645 9.26888 61.8512 9.37305 61.6494C9.47721 61.4476 9.62858 61.2702 9.82715 61.1172C10.0257 60.9609 10.2617 60.8389 10.5352 60.751C10.8118 60.6631 11.1211 60.6191 11.4629 60.6191C11.873 60.6191 12.2376 60.6875 12.5566 60.8242C12.8757 60.9609 13.1263 61.166 13.3086 61.4395C13.4941 61.7129 13.5869 62.0547 13.5869 62.4648V64.7256C13.5869 65.0153 13.6048 65.2529 13.6406 65.4385C13.6764 65.6208 13.7285 65.7803 13.7969 65.917V66H12.376C12.3076 65.8568 12.2555 65.6777 12.2197 65.4629C12.1872 65.2448 12.1709 65.0267 12.1709 64.8086ZM12.3564 62.7822L12.3662 63.5781H11.5801C11.3945 63.5781 11.2334 63.5993 11.0967 63.6416C10.96 63.6839 10.8477 63.7441 10.7598 63.8223C10.6719 63.8971 10.6068 63.985 10.5645 64.0859C10.5254 64.1868 10.5059 64.2975 10.5059 64.418C10.5059 64.5384 10.5335 64.6475 10.5889 64.7451C10.6442 64.8395 10.724 64.9144 10.8281 64.9697C10.9323 65.0218 11.0544 65.0479 11.1943 65.0479C11.4059 65.0479 11.5898 65.0055 11.7461 64.9209C11.9023 64.8363 12.0228 64.7321 12.1074 64.6084C12.1953 64.4847 12.2409 64.3675 12.2441 64.2568L12.6152 64.8525C12.5632 64.986 12.4915 65.1243 12.4004 65.2676C12.3125 65.4108 12.2002 65.5459 12.0635 65.6729C11.9268 65.7965 11.7624 65.8991 11.5703 65.9805C11.3783 66.0586 11.1504 66.0977 10.8867 66.0977C10.5514 66.0977 10.2471 66.0309 9.97363 65.8975C9.70345 65.7607 9.48861 65.5736 9.3291 65.3359C9.17285 65.0951 9.09473 64.8216 9.09473 64.5156C9.09473 64.2389 9.14681 63.9932 9.25098 63.7783C9.35514 63.5635 9.50814 63.3828 9.70996 63.2363C9.91504 63.0866 10.1706 62.9743 10.4766 62.8994C10.7826 62.8213 11.1374 62.7822 11.541 62.7822H12.3564ZM17.5273 64.54C17.5273 64.4391 17.498 64.348 17.4395 64.2666C17.3809 64.1852 17.2718 64.1104 17.1123 64.042C16.9561 63.9704 16.7298 63.9053 16.4336 63.8467C16.1667 63.7881 15.9176 63.7148 15.6865 63.627C15.4587 63.5358 15.2601 63.4268 15.0908 63.2998C14.9248 63.1729 14.7946 63.0231 14.7002 62.8506C14.6058 62.6748 14.5586 62.4746 14.5586 62.25C14.5586 62.0286 14.6058 61.8203 14.7002 61.625C14.7979 61.4297 14.9362 61.2572 15.1152 61.1074C15.2975 60.9544 15.5189 60.8356 15.7793 60.751C16.043 60.6631 16.3392 60.6191 16.668 60.6191C17.127 60.6191 17.5208 60.6924 17.8496 60.8389C18.1816 60.9854 18.4355 61.1872 18.6113 61.4443C18.7904 61.6982 18.8799 61.988 18.8799 62.3135H17.4736C17.4736 62.1768 17.4443 62.0547 17.3857 61.9473C17.3304 61.8366 17.2425 61.7503 17.1221 61.6885C17.0049 61.6234 16.8519 61.5908 16.6631 61.5908C16.5068 61.5908 16.3717 61.6185 16.2578 61.6738C16.1439 61.7259 16.056 61.7975 15.9941 61.8887C15.9355 61.9766 15.9062 62.0742 15.9062 62.1816C15.9062 62.263 15.9225 62.3363 15.9551 62.4014C15.9909 62.4632 16.0479 62.5202 16.126 62.5723C16.2041 62.6243 16.305 62.6732 16.4287 62.7188C16.5557 62.7611 16.7119 62.8001 16.8975 62.8359C17.2783 62.9141 17.6185 63.0166 17.918 63.1436C18.2174 63.2673 18.4551 63.4365 18.6309 63.6514C18.8066 63.863 18.8945 64.1413 18.8945 64.4863C18.8945 64.7207 18.8424 64.9355 18.7383 65.1309C18.6341 65.3262 18.4844 65.4971 18.2891 65.6436C18.0938 65.7868 17.8594 65.8991 17.5859 65.9805C17.3158 66.0586 17.0114 66.0977 16.6729 66.0977C16.1813 66.0977 15.7646 66.0098 15.4229 65.834C15.0843 65.6582 14.8271 65.4352 14.6514 65.165C14.4788 64.8916 14.3926 64.6117 14.3926 64.3252H15.7256C15.7321 64.5173 15.7809 64.6719 15.8721 64.7891C15.9665 64.9062 16.0853 64.9909 16.2285 65.043C16.375 65.0951 16.5329 65.1211 16.7021 65.1211C16.8844 65.1211 17.0358 65.0967 17.1562 65.0479C17.2767 64.9958 17.3678 64.9274 17.4297 64.8428C17.4948 64.7549 17.5273 64.654 17.5273 64.54ZM23.6699 58.5V66H22.2637V58.5H23.6699ZM23.4697 63.1729H23.084C23.0872 62.805 23.1361 62.4665 23.2305 62.1572C23.3249 61.8447 23.46 61.5745 23.6357 61.3467C23.8115 61.1156 24.0215 60.9365 24.2656 60.8096C24.513 60.6826 24.7865 60.6191 25.0859 60.6191C25.3464 60.6191 25.5824 60.6566 25.7939 60.7314C26.0088 60.8031 26.1927 60.9202 26.3457 61.083C26.502 61.2425 26.6224 61.4525 26.707 61.7129C26.7917 61.9733 26.834 62.2891 26.834 62.6602V66H25.418V62.6504C25.418 62.416 25.3838 62.2321 25.3154 62.0986C25.2503 61.9619 25.1543 61.8659 25.0273 61.8105C24.9036 61.752 24.7507 61.7227 24.5684 61.7227C24.3665 61.7227 24.194 61.7601 24.0508 61.835C23.9108 61.9098 23.7985 62.014 23.7139 62.1475C23.6292 62.2777 23.5674 62.4307 23.5283 62.6064C23.4893 62.7822 23.4697 62.971 23.4697 63.1729ZM29.3877 60.7168V66H27.9766V60.7168H29.3877ZM27.8887 59.3398C27.8887 59.1348 27.9603 58.9655 28.1035 58.832C28.2467 58.6986 28.4388 58.6318 28.6797 58.6318C28.9173 58.6318 29.1077 58.6986 29.251 58.832C29.3975 58.9655 29.4707 59.1348 29.4707 59.3398C29.4707 59.5449 29.3975 59.7142 29.251 59.8477C29.1077 59.9811 28.9173 60.0479 28.6797 60.0479C28.4388 60.0479 28.2467 59.9811 28.1035 59.8477C27.9603 59.7142 27.8887 59.5449 27.8887 59.3398ZM32.9814 66.0977C32.5713 66.0977 32.2035 66.0326 31.8779 65.9023C31.5524 65.7689 31.2757 65.585 31.0479 65.3506C30.8232 65.1162 30.6507 64.8444 30.5303 64.5352C30.4098 64.2227 30.3496 63.8906 30.3496 63.5391V63.3438C30.3496 62.9434 30.4066 62.5771 30.5205 62.2451C30.6344 61.9131 30.7972 61.625 31.0088 61.3809C31.2236 61.1367 31.484 60.9495 31.79 60.8193C32.096 60.6859 32.4411 60.6191 32.8252 60.6191C33.1995 60.6191 33.5316 60.681 33.8213 60.8047C34.111 60.9284 34.3535 61.1042 34.5488 61.332C34.7474 61.5599 34.8971 61.8333 34.998 62.1523C35.099 62.4681 35.1494 62.8197 35.1494 63.207V63.793H30.9502V62.8555H33.7676V62.748C33.7676 62.5527 33.7318 62.3786 33.6602 62.2256C33.5918 62.0693 33.4876 61.9456 33.3477 61.8545C33.2077 61.7633 33.0286 61.7178 32.8105 61.7178C32.625 61.7178 32.4655 61.7585 32.332 61.8398C32.1986 61.9212 32.0895 62.0352 32.0049 62.1816C31.9235 62.3281 31.8617 62.5007 31.8193 62.6992C31.7803 62.8945 31.7607 63.1094 31.7607 63.3438V63.5391C31.7607 63.7507 31.79 63.946 31.8486 64.125C31.9105 64.304 31.9967 64.4587 32.1074 64.5889C32.2214 64.7191 32.3581 64.82 32.5176 64.8916C32.6803 64.9632 32.8643 64.999 33.0693 64.999C33.3232 64.999 33.5592 64.9502 33.7773 64.8525C33.9987 64.7516 34.1891 64.6003 34.3486 64.3984L35.0322 65.1406C34.9215 65.3001 34.7702 65.4531 34.5781 65.5996C34.3893 65.7461 34.1615 65.8665 33.8945 65.9609C33.6276 66.0521 33.3232 66.0977 32.9814 66.0977ZM37.3564 61.8691V66H35.9502V60.7168H37.2734L37.3564 61.8691ZM38.9482 60.6826L38.9238 61.9863C38.8555 61.9766 38.7725 61.9684 38.6748 61.9619C38.5804 61.9521 38.4941 61.9473 38.416 61.9473C38.2174 61.9473 38.0449 61.9733 37.8984 62.0254C37.7552 62.0742 37.6348 62.1475 37.5371 62.2451C37.4427 62.3428 37.3711 62.4616 37.3223 62.6016C37.2767 62.7415 37.2507 62.901 37.2441 63.0801L36.9609 62.9922C36.9609 62.6504 36.9951 62.3363 37.0635 62.0498C37.1318 61.7601 37.2311 61.5078 37.3613 61.293C37.4948 61.0781 37.6576 60.9121 37.8496 60.7949C38.0417 60.6777 38.2614 60.6191 38.5088 60.6191C38.5869 60.6191 38.6667 60.6257 38.748 60.6387C38.8294 60.6484 38.8962 60.6631 38.9482 60.6826ZM42.1807 60.7168H43.5918V66.3174C43.5918 66.708 43.5202 67.0384 43.377 67.3086C43.2337 67.5788 43.027 67.7839 42.7568 67.9238C42.4867 68.0638 42.1595 68.1338 41.7754 68.1338C41.6549 68.1338 41.5378 68.1273 41.4238 68.1143C41.3066 68.1012 41.1862 68.0801 41.0625 68.0508L41.0674 66.9717C41.1455 66.9847 41.222 66.9945 41.2969 67.001C41.3685 67.0107 41.4417 67.0156 41.5166 67.0156C41.6631 67.0156 41.7852 66.9912 41.8828 66.9424C41.9805 66.8936 42.0537 66.8171 42.1025 66.7129C42.1546 66.612 42.1807 66.4801 42.1807 66.3174V60.7168ZM42.0684 59.3398C42.0684 59.1348 42.14 58.9655 42.2832 58.832C42.4297 58.6986 42.6217 58.6318 42.8594 58.6318C43.1003 58.6318 43.2923 58.6986 43.4355 58.832C43.5788 58.9655 43.6504 59.1348 43.6504 59.3398C43.6504 59.5449 43.5788 59.7142 43.4355 59.8477C43.2923 59.9811 43.1003 60.0479 42.8594 60.0479C42.6217 60.0479 42.4297 59.9811 42.2832 59.8477C42.14 59.7142 42.0684 59.5449 42.0684 59.3398ZM47.1416 66.0977C46.7314 66.0977 46.3636 66.0326 46.0381 65.9023C45.7126 65.7689 45.4359 65.585 45.208 65.3506C44.9834 65.1162 44.8109 64.8444 44.6904 64.5352C44.57 64.2227 44.5098 63.8906 44.5098 63.5391V63.3438C44.5098 62.9434 44.5667 62.5771 44.6807 62.2451C44.7946 61.9131 44.9574 61.625 45.1689 61.3809C45.3838 61.1367 45.6442 60.9495 45.9502 60.8193C46.2562 60.6859 46.6012 60.6191 46.9854 60.6191C47.3597 60.6191 47.6917 60.681 47.9814 60.8047C48.2712 60.9284 48.5137 61.1042 48.709 61.332C48.9076 61.5599 49.0573 61.8333 49.1582 62.1523C49.2591 62.4681 49.3096 62.8197 49.3096 63.207V63.793H45.1104V62.8555H47.9277V62.748C47.9277 62.5527 47.8919 62.3786 47.8203 62.2256C47.752 62.0693 47.6478 61.9456 47.5078 61.8545C47.3678 61.7633 47.1888 61.7178 46.9707 61.7178C46.7852 61.7178 46.6257 61.7585 46.4922 61.8398C46.3587 61.9212 46.2497 62.0352 46.165 62.1816C46.0837 62.3281 46.0218 62.5007 45.9795 62.6992C45.9404 62.8945 45.9209 63.1094 45.9209 63.3438V63.5391C45.9209 63.7507 45.9502 63.946 46.0088 64.125C46.0706 64.304 46.1569 64.4587 46.2676 64.5889C46.3815 64.7191 46.5182 64.82 46.6777 64.8916C46.8405 64.9632 47.0244 64.999 47.2295 64.999C47.4834 64.999 47.7194 64.9502 47.9375 64.8525C48.1589 64.7516 48.3493 64.6003 48.5088 64.3984L49.1924 65.1406C49.0817 65.3001 48.9303 65.4531 48.7383 65.5996C48.5495 65.7461 48.3216 65.8665 48.0547 65.9609C47.7878 66.0521 47.4834 66.0977 47.1416 66.0977ZM54.3975 64.9746L55.5693 60.7168H57.0391L55.2568 66H54.3682L54.3975 64.9746ZM53.5918 60.7168L54.7686 64.9795L54.793 66H53.8994L52.1172 60.7168H53.5918ZM57.3662 63.4121V63.3096C57.3662 62.9222 57.4215 62.5658 57.5322 62.2402C57.6429 61.9115 57.804 61.6266 58.0156 61.3857C58.2272 61.1449 58.4876 60.9577 58.7969 60.8242C59.1061 60.6875 59.4609 60.6191 59.8613 60.6191C60.2617 60.6191 60.6182 60.6875 60.9307 60.8242C61.2432 60.9577 61.5052 61.1449 61.7168 61.3857C61.9316 61.6266 62.0944 61.9115 62.2051 62.2402C62.3158 62.5658 62.3711 62.9222 62.3711 63.3096V63.4121C62.3711 63.7962 62.3158 64.1527 62.2051 64.4814C62.0944 64.807 61.9316 65.0918 61.7168 65.3359C61.5052 65.5768 61.2448 65.764 60.9355 65.8975C60.6263 66.0309 60.2715 66.0977 59.8711 66.0977C59.4707 66.0977 59.1143 66.0309 58.8018 65.8975C58.4925 65.764 58.2305 65.5768 58.0156 65.3359C57.804 65.0918 57.6429 64.807 57.5322 64.4814C57.4215 64.1527 57.3662 63.7962 57.3662 63.4121ZM58.7725 63.3096V63.4121C58.7725 63.6335 58.792 63.8402 58.8311 64.0322C58.8701 64.2243 58.932 64.3936 59.0166 64.54C59.1045 64.6833 59.2184 64.7956 59.3584 64.877C59.4984 64.9583 59.6693 64.999 59.8711 64.999C60.0664 64.999 60.234 64.9583 60.374 64.877C60.514 64.7956 60.6263 64.6833 60.7109 64.54C60.7956 64.3936 60.8574 64.2243 60.8965 64.0322C60.9388 63.8402 60.96 63.6335 60.96 63.4121V63.3096C60.96 63.0947 60.9388 62.8929 60.8965 62.7041C60.8574 62.512 60.7939 62.3428 60.7061 62.1963C60.6214 62.0465 60.5091 61.9294 60.3691 61.8447C60.2292 61.7601 60.0599 61.7178 59.8613 61.7178C59.6628 61.7178 59.4935 61.7601 59.3535 61.8447C59.2168 61.9294 59.1045 62.0465 59.0166 62.1963C58.932 62.3428 58.8701 62.512 58.8311 62.7041C58.792 62.8929 58.7725 63.0947 58.7725 63.3096ZM63.0107 63.4121V63.3096C63.0107 62.9222 63.0661 62.5658 63.1768 62.2402C63.2874 61.9115 63.4486 61.6266 63.6602 61.3857C63.8717 61.1449 64.1322 60.9577 64.4414 60.8242C64.7507 60.6875 65.1055 60.6191 65.5059 60.6191C65.9062 60.6191 66.2627 60.6875 66.5752 60.8242C66.8877 60.9577 67.1497 61.1449 67.3613 61.3857C67.5762 61.6266 67.7389 61.9115 67.8496 62.2402C67.9603 62.5658 68.0156 62.9222 68.0156 63.3096V63.4121C68.0156 63.7962 67.9603 64.1527 67.8496 64.4814C67.7389 64.807 67.5762 65.0918 67.3613 65.3359C67.1497 65.5768 66.8893 65.764 66.5801 65.8975C66.2708 66.0309 65.916 66.0977 65.5156 66.0977C65.1152 66.0977 64.7588 66.0309 64.4463 65.8975C64.137 65.764 63.875 65.5768 63.6602 65.3359C63.4486 65.0918 63.2874 64.807 63.1768 64.4814C63.0661 64.1527 63.0107 63.7962 63.0107 63.4121ZM64.417 63.3096V63.4121C64.417 63.6335 64.4365 63.8402 64.4756 64.0322C64.5146 64.2243 64.5765 64.3936 64.6611 64.54C64.749 64.6833 64.863 64.7956 65.0029 64.877C65.1429 64.9583 65.3138 64.999 65.5156 64.999C65.7109 64.999 65.8786 64.9583 66.0186 64.877C66.1585 64.7956 66.2708 64.6833 66.3555 64.54C66.4401 64.3936 66.502 64.2243 66.541 64.0322C66.5833 63.8402 66.6045 63.6335 66.6045 63.4121V63.3096C66.6045 63.0947 66.5833 62.8929 66.541 62.7041C66.502 62.512 66.4385 62.3428 66.3506 62.1963C66.266 62.0465 66.1536 61.9294 66.0137 61.8447C65.8737 61.7601 65.7044 61.7178 65.5059 61.7178C65.3073 61.7178 65.138 61.7601 64.998 61.8447C64.8613 61.9294 64.749 62.0465 64.6611 62.1963C64.5765 62.3428 64.5146 62.512 64.4756 62.7041C64.4365 62.8929 64.417 63.0947 64.417 63.3096ZM70.2861 61.8691V66H68.8799V60.7168H70.2031L70.2861 61.8691ZM71.8779 60.6826L71.8535 61.9863C71.7852 61.9766 71.7021 61.9684 71.6045 61.9619C71.5101 61.9521 71.4238 61.9473 71.3457 61.9473C71.1471 61.9473 70.9746 61.9733 70.8281 62.0254C70.6849 62.0742 70.5645 62.1475 70.4668 62.2451C70.3724 62.3428 70.3008 62.4616 70.252 62.6016C70.2064 62.7415 70.1803 62.901 70.1738 63.0801L69.8906 62.9922C69.8906 62.6504 69.9248 62.3363 69.9932 62.0498C70.0615 61.7601 70.1608 61.5078 70.291 61.293C70.4245 61.0781 70.5872 60.9121 70.7793 60.7949C70.9714 60.6777 71.1911 60.6191 71.4385 60.6191C71.5166 60.6191 71.5964 60.6257 71.6777 60.6387C71.7591 60.6484 71.8258 60.6631 71.8779 60.6826ZM73.9482 58.4951V66H72.542V58.4951H73.9482ZM77.2783 60.7168L74.9834 63.334L73.7529 64.5791L73.2402 63.5635L74.2168 62.3232L75.5889 60.7168H77.2783ZM75.8184 66L74.2559 63.5586L75.2275 62.709L77.4395 66H75.8184ZM80.2178 66.0977C79.8076 66.0977 79.4398 66.0326 79.1143 65.9023C78.7887 65.7689 78.512 65.585 78.2842 65.3506C78.0596 65.1162 77.887 64.8444 77.7666 64.5352C77.6462 64.2227 77.5859 63.8906 77.5859 63.5391V63.3438C77.5859 62.9434 77.6429 62.5771 77.7568 62.2451C77.8708 61.9131 78.0335 61.625 78.2451 61.3809C78.46 61.1367 78.7204 60.9495 79.0264 60.8193C79.3324 60.6859 79.6774 60.6191 80.0615 60.6191C80.4359 60.6191 80.7679 60.681 81.0576 60.8047C81.3473 60.9284 81.5898 61.1042 81.7852 61.332C81.9837 61.5599 82.1335 61.8333 82.2344 62.1523C82.3353 62.4681 82.3857 62.8197 82.3857 63.207V63.793H78.1865V62.8555H81.0039V62.748C81.0039 62.5527 80.9681 62.3786 80.8965 62.2256C80.8281 62.0693 80.724 61.9456 80.584 61.8545C80.444 61.7633 80.265 61.7178 80.0469 61.7178C79.8613 61.7178 79.7018 61.7585 79.5684 61.8398C79.4349 61.9212 79.3258 62.0352 79.2412 62.1816C79.1598 62.3281 79.098 62.5007 79.0557 62.6992C79.0166 62.8945 78.9971 63.1094 78.9971 63.3438V63.5391C78.9971 63.7507 79.0264 63.946 79.085 64.125C79.1468 64.304 79.2331 64.4587 79.3438 64.5889C79.4577 64.7191 79.5944 64.82 79.7539 64.8916C79.9167 64.9632 80.1006 64.999 80.3057 64.999C80.5596 64.999 80.7956 64.9502 81.0137 64.8525C81.235 64.7516 81.4255 64.6003 81.585 64.3984L82.2686 65.1406C82.1579 65.3001 82.0065 65.4531 81.8145 65.5996C81.6257 65.7461 81.3978 65.8665 81.1309 65.9609C80.8639 66.0521 80.5596 66.0977 80.2178 66.0977ZM86.3115 64.7354V60.7168H87.7178V66H86.3945L86.3115 64.7354ZM86.4678 63.6514L86.8828 63.6416C86.8828 63.9932 86.8421 64.3203 86.7607 64.623C86.6794 64.9225 86.5573 65.1829 86.3945 65.4043C86.2318 65.6224 86.0267 65.7933 85.7793 65.917C85.5319 66.0374 85.2406 66.0977 84.9053 66.0977C84.6481 66.0977 84.4105 66.0618 84.1924 65.9902C83.9775 65.9154 83.792 65.7998 83.6357 65.6436C83.4827 65.484 83.3623 65.2806 83.2744 65.0332C83.1898 64.7826 83.1475 64.4814 83.1475 64.1299V60.7168H84.5537V64.1396C84.5537 64.2959 84.5716 64.4277 84.6074 64.5352C84.6465 64.6426 84.7002 64.7305 84.7686 64.7988C84.8369 64.8672 84.9167 64.916 85.0078 64.9453C85.1022 64.9746 85.2064 64.9893 85.3203 64.9893C85.61 64.9893 85.8379 64.9307 86.0039 64.8135C86.1732 64.6963 86.292 64.5368 86.3604 64.335C86.432 64.1299 86.4678 63.902 86.4678 63.6514ZM90.1982 61.8691V66H88.792V60.7168H90.1152L90.1982 61.8691ZM91.79 60.6826L91.7656 61.9863C91.6973 61.9766 91.6143 61.9684 91.5166 61.9619C91.4222 61.9521 91.3359 61.9473 91.2578 61.9473C91.0592 61.9473 90.8867 61.9733 90.7402 62.0254C90.597 62.0742 90.4766 62.1475 90.3789 62.2451C90.2845 62.3428 90.2129 62.4616 90.1641 62.6016C90.1185 62.7415 90.0924 62.901 90.0859 63.0801L89.8027 62.9922C89.8027 62.6504 89.8369 62.3363 89.9053 62.0498C89.9736 61.7601 90.0729 61.5078 90.2031 61.293C90.3366 61.0781 90.4993 60.9121 90.6914 60.7949C90.8835 60.6777 91.1032 60.6191 91.3506 60.6191C91.4287 60.6191 91.5085 60.6257 91.5898 60.6387C91.6712 60.6484 91.738 60.6631 91.79 60.6826ZM94.7881 66.0977C94.3779 66.0977 94.0101 66.0326 93.6846 65.9023C93.359 65.7689 93.0824 65.585 92.8545 65.3506C92.6299 65.1162 92.4574 64.8444 92.3369 64.5352C92.2165 64.2227 92.1562 63.8906 92.1562 63.5391V63.3438C92.1562 62.9434 92.2132 62.5771 92.3271 62.2451C92.4411 61.9131 92.6038 61.625 92.8154 61.3809C93.0303 61.1367 93.2907 60.9495 93.5967 60.8193C93.9027 60.6859 94.2477 60.6191 94.6318 60.6191C95.0062 60.6191 95.3382 60.681 95.6279 60.8047C95.9176 60.9284 96.1602 61.1042 96.3555 61.332C96.554 61.5599 96.7038 61.8333 96.8047 62.1523C96.9056 62.4681 96.9561 62.8197 96.9561 63.207V63.793H92.7568V62.8555H95.5742V62.748C95.5742 62.5527 95.5384 62.3786 95.4668 62.2256C95.3984 62.0693 95.2943 61.9456 95.1543 61.8545C95.0143 61.7633 94.8353 61.7178 94.6172 61.7178C94.4316 61.7178 94.2721 61.7585 94.1387 61.8398C94.0052 61.9212 93.8962 62.0352 93.8115 62.1816C93.7301 62.3281 93.6683 62.5007 93.626 62.6992C93.5869 62.8945 93.5674 63.1094 93.5674 63.3438V63.5391C93.5674 63.7507 93.5967 63.946 93.6553 64.125C93.7171 64.304 93.8034 64.4587 93.9141 64.5889C94.028 64.7191 94.1647 64.82 94.3242 64.8916C94.487 64.9632 94.6709 64.999 94.876 64.999C95.1299 64.999 95.3659 64.9502 95.584 64.8525C95.8053 64.7516 95.9958 64.6003 96.1553 64.3984L96.8389 65.1406C96.7282 65.3001 96.5768 65.4531 96.3848 65.5996C96.196 65.7461 95.9681 65.8665 95.7012 65.9609C95.4342 66.0521 95.1299 66.0977 94.7881 66.0977ZM99.1338 61.8447V66H97.7275V60.7168H99.0459L99.1338 61.8447ZM98.9287 63.1729H98.5479C98.5479 62.7822 98.5983 62.4307 98.6992 62.1182C98.8001 61.8024 98.9417 61.5339 99.124 61.3125C99.3063 61.0879 99.5228 60.917 99.7734 60.7998C100.027 60.6794 100.311 60.6191 100.623 60.6191C100.87 60.6191 101.097 60.6549 101.302 60.7266C101.507 60.7982 101.683 60.9121 101.829 61.0684C101.979 61.2246 102.093 61.4313 102.171 61.6885C102.252 61.9456 102.293 62.2598 102.293 62.6309V66H100.877V62.626C100.877 62.3916 100.844 62.2093 100.779 62.0791C100.714 61.9489 100.618 61.8577 100.491 61.8057C100.368 61.7503 100.215 61.7227 100.032 61.7227C99.8434 61.7227 99.679 61.7601 99.5391 61.835C99.4023 61.9098 99.2884 62.014 99.1973 62.1475C99.1094 62.2777 99.0426 62.4307 98.9971 62.6064C98.9515 62.7822 98.9287 62.971 98.9287 63.1729ZM108.704 64.8086V62.4551C108.704 62.2858 108.676 62.141 108.621 62.0205C108.566 61.8968 108.479 61.8008 108.362 61.7324C108.248 61.6641 108.1 61.6299 107.918 61.6299C107.762 61.6299 107.627 61.6576 107.513 61.7129C107.399 61.765 107.311 61.8415 107.249 61.9424C107.187 62.04 107.156 62.1556 107.156 62.2891H105.75C105.75 62.0645 105.802 61.8512 105.906 61.6494C106.01 61.4476 106.162 61.2702 106.36 61.1172C106.559 60.9609 106.795 60.8389 107.068 60.751C107.345 60.6631 107.654 60.6191 107.996 60.6191C108.406 60.6191 108.771 60.6875 109.09 60.8242C109.409 60.9609 109.66 61.166 109.842 61.4395C110.027 61.7129 110.12 62.0547 110.12 62.4648V64.7256C110.12 65.0153 110.138 65.2529 110.174 65.4385C110.21 65.6208 110.262 65.7803 110.33 65.917V66H108.909C108.841 65.8568 108.789 65.6777 108.753 65.4629C108.72 65.2448 108.704 65.0267 108.704 64.8086ZM108.89 62.7822L108.899 63.5781H108.113C107.928 63.5781 107.767 63.5993 107.63 63.6416C107.493 63.6839 107.381 63.7441 107.293 63.8223C107.205 63.8971 107.14 63.985 107.098 64.0859C107.059 64.1868 107.039 64.2975 107.039 64.418C107.039 64.5384 107.067 64.6475 107.122 64.7451C107.177 64.8395 107.257 64.9144 107.361 64.9697C107.465 65.0218 107.588 65.0479 107.728 65.0479C107.939 65.0479 108.123 65.0055 108.279 64.9209C108.436 64.8363 108.556 64.7321 108.641 64.6084C108.729 64.4847 108.774 64.3675 108.777 64.2568L109.148 64.8525C109.096 64.986 109.025 65.1243 108.934 65.2676C108.846 65.4108 108.733 65.5459 108.597 65.6729C108.46 65.7965 108.296 65.8991 108.104 65.9805C107.911 66.0586 107.684 66.0977 107.42 66.0977C107.085 66.0977 106.78 66.0309 106.507 65.8975C106.237 65.7607 106.022 65.5736 105.862 65.3359C105.706 65.0951 105.628 64.8216 105.628 64.5156C105.628 64.2389 105.68 63.9932 105.784 63.7783C105.888 63.5635 106.041 63.3828 106.243 63.2363C106.448 63.0866 106.704 62.9743 107.01 62.8994C107.316 62.8213 107.671 62.7822 108.074 62.7822H108.89ZM114.056 64.8086V62.4551C114.056 62.2858 114.028 62.141 113.973 62.0205C113.917 61.8968 113.831 61.8008 113.714 61.7324C113.6 61.6641 113.452 61.6299 113.27 61.6299C113.113 61.6299 112.978 61.6576 112.864 61.7129C112.75 61.765 112.662 61.8415 112.601 61.9424C112.539 62.04 112.508 62.1556 112.508 62.2891H111.102C111.102 62.0645 111.154 61.8512 111.258 61.6494C111.362 61.4476 111.513 61.2702 111.712 61.1172C111.91 60.9609 112.146 60.8389 112.42 60.751C112.697 60.6631 113.006 60.6191 113.348 60.6191C113.758 60.6191 114.122 60.6875 114.441 60.8242C114.76 60.9609 115.011 61.166 115.193 61.4395C115.379 61.7129 115.472 62.0547 115.472 62.4648V64.7256C115.472 65.0153 115.49 65.2529 115.525 65.4385C115.561 65.6208 115.613 65.7803 115.682 65.917V66H114.261C114.192 65.8568 114.14 65.6777 114.104 65.4629C114.072 65.2448 114.056 65.0267 114.056 64.8086ZM114.241 62.7822L114.251 63.5781H113.465C113.279 63.5781 113.118 63.5993 112.981 63.6416C112.845 63.6839 112.732 63.7441 112.645 63.8223C112.557 63.8971 112.492 63.985 112.449 64.0859C112.41 64.1868 112.391 64.2975 112.391 64.418C112.391 64.5384 112.418 64.6475 112.474 64.7451C112.529 64.8395 112.609 64.9144 112.713 64.9697C112.817 65.0218 112.939 65.0479 113.079 65.0479C113.291 65.0479 113.475 65.0055 113.631 64.9209C113.787 64.8363 113.908 64.7321 113.992 64.6084C114.08 64.4847 114.126 64.3675 114.129 64.2568L114.5 64.8525C114.448 64.986 114.376 65.1243 114.285 65.2676C114.197 65.4108 114.085 65.5459 113.948 65.6729C113.812 65.7965 113.647 65.8991 113.455 65.9805C113.263 66.0586 113.035 66.0977 112.771 66.0977C112.436 66.0977 112.132 66.0309 111.858 65.8975C111.588 65.7607 111.373 65.5736 111.214 65.3359C111.058 65.0951 110.979 64.8216 110.979 64.5156C110.979 64.2389 111.032 63.9932 111.136 63.7783C111.24 63.5635 111.393 63.3828 111.595 63.2363C111.8 63.0866 112.055 62.9743 112.361 62.8994C112.667 62.8213 113.022 62.7822 113.426 62.7822H114.241ZM117.933 61.8447V66H116.526V60.7168H117.845L117.933 61.8447ZM117.728 63.1729H117.347C117.347 62.7822 117.397 62.4307 117.498 62.1182C117.599 61.8024 117.741 61.5339 117.923 61.3125C118.105 61.0879 118.322 60.917 118.572 60.7998C118.826 60.6794 119.109 60.6191 119.422 60.6191C119.669 60.6191 119.896 60.6549 120.101 60.7266C120.306 60.7982 120.481 60.9121 120.628 61.0684C120.778 61.2246 120.892 61.4313 120.97 61.6885C121.051 61.9456 121.092 62.2598 121.092 62.6309V66H119.676V62.626C119.676 62.3916 119.643 62.2093 119.578 62.0791C119.513 61.9489 119.417 61.8577 119.29 61.8057C119.166 61.7503 119.013 61.7227 118.831 61.7227C118.642 61.7227 118.478 61.7601 118.338 61.835C118.201 61.9098 118.087 62.014 117.996 62.1475C117.908 62.2777 117.841 62.4307 117.796 62.6064C117.75 62.7822 117.728 62.971 117.728 63.1729Z" fill="white"/>
</svg>
